ffmpeg started on 2016-11-24 at 02:12:26
Report written to "Output/NVENCh264/results/ffmpeg/crowd_run_2160p50fast13000k.log"
Command line:
Tools/ffmpeg/ffmpeg -benchmark -y -i Input/y4m/crowd_run_2160p50.y4m -c:v h264_nvenc -preset fast -b:v 13000k -an Output/NVENCh264/encoded/crowd_run_2160p50fast13000k.mkv
ffmpeg version N-82227-gdb23fde Copyright (c) 2000-2016 the FFmpeg developers
  built with gcc 5.4.0 (Ubuntu 5.4.0-6ubuntu1~16.04.2) 20160609
  configuration: --prefix=/home/jaroslav/ffmpeg_build --pkg-config-flags=--static --extra-cflags=-I/home/jaroslav/ffmpeg_build/include --extra-ldflags=-L/home/jaroslav/ffmpeg_build/lib --bindir=/home/jaroslav/bin --enable-gpl --enable-libass --enable-libfdk-aac --enable-libfreetype --enable-libmp3lame --enable-libopus --enable-libtheora --enable-libvorbis --enable-libvpx --enable-libx264 --enable-libx265 --enable-nvenc --enable-libmfx --enable-libxvid --enable-libgsm --enable-libopencore-amrnb --enable-version3 --enable-nonfree
  libavutil      55. 35.100 / 55. 35.100
  libavcodec     57. 66.101 / 57. 66.101
  libavformat    57. 57.100 / 57. 57.100
  libavdevice    57.  2.100 / 57.  2.100
  libavfilter     6. 66.100 /  6. 66.100
  libswscale      4.  3.100 /  4.  3.100
  libswresample   2.  4.100 /  2.  4.100
  libpostproc    54.  2.100 / 54.  2.100
Input #0, yuv4mpegpipe, from 'Input/y4m/crowd_run_2160p50.y4m':
  Duration: 00:00:10.00, start: 0.000000, bitrate: 4976642 kb/s
    Stream #0:0: Video: rawvideo (I420 / 0x30323449), yuv420p(progressive), 3840x2160, SAR 1:1 DAR 16:9, 50 fps, 50 tbr, 50 tbn, 50 tbc
Output #0, matroska, to 'Output/NVENCh264/encoded/crowd_run_2160p50fast13000k.mkv':
  Metadata:
    encoder         : Lavf57.57.100
    Stream #0:0: Video: h264 (h264_nvenc) (Main) (H264 / 0x34363248), yuv420p, 3840x2160 [SAR 1:1 DAR 16:9], q=-1--1, 13000 kb/s, 50 fps, 1k tbn, 50 tbc
    Metadata:
      encoder         : Lavc57.66.101 h264_nvenc
    Side data:
      cpb: bitrate max/min/avg: 0/0/13000000 buffer size: 26000000 vbv_delay: -1
Stream mapping:
  Stream #0:0 -> #0:0 (rawvideo (native) -> h264 (h264_nvenc))
Press [q] to stop, [?] for help
frame=   18 fps=0.0 q=0.0 size=       0kB time=00:00:00.00 bitrate=N/A speed=   0x    frame=   36 fps= 34 q=42.0 size=       1kB time=00:00:00.10 bitrate=  58.1kbits/s speed=0.0966x    frame=   54 fps= 34 q=42.0 size=       1kB time=00:00:00.46 bitrate=  12.7kbits/s speed=0.293x    frame=   72 fps= 34 q=42.0 size=       1kB time=00:00:00.82 bitrate=   7.1kbits/s speed=0.393x    frame=   90 fps= 34 q=42.0 size=       1kB time=00:00:01.18 bitrate=   5.0kbits/s speed=0.453x    frame=  108 fps= 34 q=42.0 size=       1kB time=00:00:01.54 bitrate=   3.8kbits/s speed=0.492x    frame=  126 fps= 35 q=42.0 size=       1kB time=00:00:01.90 bitrate=   3.1kbits/s speed=0.521x    frame=  144 fps= 23 q=42.0 size=       1kB time=00:00:02.26 bitrate=   2.6kbits/s speed=0.354x    frame=  145 fps= 14 q=42.0 size=       1kB time=00:00:02.28 bitrate=   2.6kbits/s speed=0.225x    frame=  146 fps= 12 q=42.0 size=       1kB time=00:00:02.30 bitrate=   2.5kbits/s speed=0.189x    frame=  163 fps= 13 q=42.0 size=       1kB time=00:00:02.64 bitrate=   2.2kbits/s speed=0.209x    frame=  180 fps= 14 q=42.0 size=    5149kB time=00:00:02.98 bitrate=14148.7kbits/s speed=0.226x    frame=  197 fps= 14 q=42.0 size=    5149kB time=00:00:03.32 bitrate=12700.2kbits/s speed=0.243x    frame=  214 fps= 15 q=42.0 size=    5149kB time=00:00:03.66 bitrate=11520.7kbits/s speed=0.258x    frame=  232 fps= 16 q=42.0 size=    5149kB time=00:00:04.02 bitrate=10489.2kbits/s speed=0.273x    frame=  250 fps= 16 q=42.0 size=    5149kB time=00:00:04.38 bitrate=9627.3kbits/s speed=0.287x    frame=  268 fps= 17 q=42.0 size=    5149kB time=00:00:04.74 bitrate=8896.3kbits/s speed=0.301x    frame=  285 fps= 18 q=42.0 size=    8654kB time=00:00:05.08 bitrate=13953.2kbits/s speed=0.312x    frame=  303 fps= 18 q=42.0 size=    8654kB time=00:00:05.44 bitrate=13030.0kbits/s speed=0.324x    frame=  321 fps= 19 q=42.0 size=    8654kB time=00:00:05.80 bitrate=12221.4kbits/s speed=0.335x    frame=  339 fps= 19 q=42.0 size=    8654kB time=00:00:06.16 bitrate=11507.3kbits/s speed=0.346x    frame=  357 fps= 19 q=42.0 size=    8654kB time=00:00:06.52 bitrate=10872.0kbits/s speed=0.356x    frame=  375 fps= 20 q=42.0 size=    8654kB time=00:00:06.88 bitrate=10303.2kbits/s speed=0.365x    frame=  393 fps= 20 q=42.0 size=    8654kB time=00:00:07.24 bitrate=9791.0kbits/s speed=0.374x    frame=  411 fps= 21 q=42.0 size=    8654kB time=00:00:07.60 bitrate=9327.2kbits/s speed=0.382x    frame=  429 fps= 21 q=42.0 size=    8654kB time=00:00:07.96 bitrate=8905.4kbits/s speed=0.39x    frame=  446 fps= 21 q=42.0 size=   13798kB time=00:00:08.30 bitrate=13616.9kbits/s speed=0.397x    frame=  464 fps= 22 q=42.0 size=   13798kB time=00:00:08.66 bitrate=13050.9kbits/s speed=0.405x    frame=  482 fps= 22 q=42.0 size=   13798kB time=00:00:09.02 bitrate=12530.1kbits/s speed=0.411x    frame=  500 fps= 22 q=42.0 size=   13798kB time=00:00:09.38 bitrate=12049.3kbits/s speed=0.418x    frame=  500 fps= 22 q=42.0 Lsize=   17086kB time=00:00:09.98 bitrate=14023.3kbits/s speed=0.444x    
video:17081kB audio:0kB subtitle:0kB other streams:0kB global headers:0kB muxing overhead: 0.027797%
bench: utime=1.132s
bench: maxrss=980568kB
